<svg width="1434" height="452" viewBox="0 0 1434 452" fill="none" xmlns="http://www.w3.org/2000/svg">
<path d="M498 313.64C485.2 313.64 473.12 311.72 461.76 307.88C450.56 304.04 439.52 298.44 428.64 291.08L448.8 260.12C459.52 267.16 468.72 272.28 476.4 275.48C484.08 278.52 491.6 280.04 498.96 280.04C504.24 280.04 508.72 279.32 512.4 277.88C516.24 276.44 519.2 274.44 521.28 271.88C523.36 269.32 524.4 266.36 524.4 263C524.4 258.2 522.72 254.52 519.36 251.96C516 249.4 511.6 247.4 506.16 245.96C500.72 244.36 494.72 243 488.16 241.88C481.6 240.6 475.04 239.08 468.48 237.32C461.92 235.4 455.92 232.76 450.48 229.4C445.04 226.04 440.64 221.56 437.28 215.96C433.92 210.2 432.24 202.76 432.24 193.64C432.24 182.6 434.8 173.16 439.92 165.32C445.04 157.32 452.4 151.16 462 146.84C471.76 142.52 483.44 140.36 497.04 140.36C509.36 140.36 521.2 142.2 532.56 145.88C544.08 149.56 553.92 154.68 562.08 161.24L541.2 191.24C533.68 185.48 526.08 181.16 518.4 178.28C510.88 175.4 503.04 173.96 494.88 173.96C487.36 173.96 481.52 175.48 477.36 178.52C473.2 181.56 471.12 185.4 471.12 190.04C471.12 194.36 472.8 197.72 476.16 200.12C479.52 202.36 484 204.2 489.6 205.64C495.2 207.08 501.28 208.44 507.84 209.72C514.56 210.84 521.2 212.44 527.76 214.52C534.48 216.44 540.64 219.16 546.24 222.68C551.84 226.04 556.32 230.68 559.68 236.6C563.04 242.52 564.72 250.04 564.72 259.16C564.72 269.88 562 279.4 556.56 287.72C551.12 295.88 543.36 302.28 533.28 306.92C523.36 311.4 511.6 313.64 498 313.64ZM584.066 361.16V187.16H621.506V199.16C625.506 194.68 629.986 191.24 634.946 188.84C640.066 186.44 645.586 185.24 651.506 185.24C661.586 185.24 670.786 188.04 679.106 193.64C687.426 199.24 694.066 206.84 699.026 216.44C703.986 226.04 706.466 236.92 706.466 249.08C706.466 261.08 703.986 271.96 699.026 281.72C694.066 291.32 687.426 298.92 679.106 304.52C670.786 310.12 661.586 312.92 651.506 312.92C646.066 312.92 640.866 311.88 635.906 309.8C631.106 307.56 626.786 304.52 622.946 300.68V361.16H584.066ZM642.386 282.2C647.826 282.2 652.466 280.84 656.306 278.12C660.146 275.4 663.106 271.56 665.186 266.6C667.266 261.48 668.306 255.64 668.306 249.08C668.306 242.36 667.266 236.52 665.186 231.56C663.106 226.6 660.146 222.76 656.306 220.04C652.466 217.32 647.826 215.96 642.386 215.96C638.706 215.96 635.186 216.68 631.826 218.12C628.626 219.4 625.666 221.24 622.946 223.64V274.52C625.666 276.92 628.626 278.84 631.826 280.28C635.186 281.56 638.706 282.2 642.386 282.2ZM786.053 313.4C773.733 313.4 762.693 310.6 752.933 305C743.173 299.24 735.413 291.56 729.652 281.96C724.053 272.2 721.253 261.24 721.253 249.08C721.253 237.08 724.053 226.28 729.652 216.68C735.413 207.08 743.173 199.48 752.933 193.88C762.693 188.12 773.653 185.24 785.813 185.24C798.133 185.24 809.093 188.12 818.693 193.88C828.453 199.48 836.133 207.08 841.733 216.68C847.493 226.28 850.373 237.16 850.373 249.32C850.373 261.32 847.493 272.2 841.733 281.96C836.133 291.56 828.453 299.24 818.693 305C809.093 310.6 798.213 313.4 786.053 313.4ZM785.813 280.76C791.093 280.76 795.733 279.4 799.733 276.68C803.733 273.96 806.853 270.28 809.093 265.64C811.333 260.84 812.453 255.4 812.453 249.32C812.453 243.24 811.333 237.88 809.093 233.24C806.853 228.44 803.733 224.68 799.733 221.96C795.733 219.24 791.093 217.88 785.813 217.88C780.693 217.88 776.053 219.24 771.893 221.96C767.893 224.68 764.773 228.44 762.533 233.24C760.293 237.88 759.173 243.24 759.173 249.32C759.173 255.4 760.293 260.84 762.533 265.64C764.773 270.28 767.893 273.96 771.893 276.68C776.053 279.4 780.693 280.76 785.813 280.76ZM953.239 313.4C935.959 313.4 922.919 309.56 914.119 301.88C905.319 294.04 900.919 282.52 900.919 267.32V217.16H864.679V187.16H900.919V152.84L939.799 144.92V187.16H986.599V217.16H939.799V259.64C939.799 267.48 941.319 273 944.359 276.2C947.559 279.24 953.079 280.76 960.919 280.76C964.439 280.76 968.199 280.52 972.199 280.04C976.199 279.56 981.239 278.52 987.319 276.92V308.36C982.519 309.64 976.919 310.76 970.519 311.72C964.279 312.84 958.519 313.4 953.239 313.4ZM1097.15 313.4C1079.87 313.4 1066.83 309.56 1058.03 301.88C1049.23 294.04 1044.83 282.52 1044.83 267.32V217.16H1008.59V187.16H1044.83V152.84L1083.71 144.92V187.16H1130.51V217.16H1083.71V259.64C1083.71 267.48 1085.23 273 1088.27 276.2C1091.47 279.24 1096.99 280.76 1104.83 280.76C1108.35 280.76 1112.11 280.52 1116.11 280.04C1120.11 279.56 1125.15 278.52 1131.23 276.92V308.36C1126.43 309.64 1120.83 310.76 1114.43 311.72C1108.19 312.84 1102.43 313.4 1097.15 313.4ZM1221.13 313.4C1208.65 313.4 1197.37 310.6 1187.29 305C1177.37 299.24 1169.45 291.56 1163.53 281.96C1157.61 272.2 1154.65 261.32 1154.65 249.32C1154.65 237.16 1157.45 226.28 1163.05 216.68C1168.65 207.08 1176.25 199.48 1185.85 193.88C1195.45 188.12 1206.25 185.24 1218.25 185.24C1230.73 185.24 1241.69 188.04 1251.13 193.64C1260.73 199.24 1268.17 207 1273.45 216.92C1278.89 226.68 1281.61 237.96 1281.61 250.76V259.16H1192.81C1194.09 263.8 1196.17 267.88 1199.05 271.4C1201.93 274.92 1205.45 277.64 1209.61 279.56C1213.77 281.48 1218.25 282.44 1223.05 282.44C1228.65 282.44 1233.69 281.4 1238.17 279.32C1242.81 277.24 1246.65 274.28 1249.69 270.44L1274.65 292.76C1266.81 300.28 1258.57 305.64 1249.93 308.84C1241.45 311.88 1231.85 313.4 1221.13 313.4ZM1193.05 237.08H1245.61C1244.49 232.44 1242.73 228.52 1240.33 225.32C1237.93 222.12 1234.97 219.72 1231.45 218.12C1227.93 216.36 1223.93 215.48 1219.45 215.48C1215.13 215.48 1211.13 216.36 1207.45 218.12C1203.93 219.72 1200.97 222.12 1198.57 225.32C1196.17 228.52 1194.33 232.44 1193.05 237.08ZM1303.36 311V281H1330.24V217.16H1303.36V187.16H1369.12V218.36C1373.6 207 1379.2 198.68 1385.92 193.4C1392.8 187.96 1400.56 185.24 1409.2 185.24C1412.88 185.24 1415.76 185.48 1417.84 185.96C1420.08 186.44 1422.72 187.4 1425.76 188.84V223.64C1422.72 222.2 1419.04 221.16 1414.72 220.52C1410.56 219.72 1406.4 219.32 1402.24 219.32C1395.52 219.32 1389.2 220.84 1383.28 223.88C1377.36 226.76 1372.64 230.76 1369.12 235.88V281H1397.44V311H1303.36Z" fill="#326CE5"/>
<path d="M191.007 2.00037L32.0069 87.0004C25.5134 91.5053 18.5191 92.2739 18.5069 100C11.3082 174.978 -5.01443 267.819 1.50692 286L95.0069 382.5L189.507 449C194.525 452.769 197.827 452.609 204.507 449L299.007 383.5C337.908 340.87 394.696 290.467 394.007 278L377.007 102.5C374.9 98.1076 378.214 93.5377 362.007 85.5004L205.507 2.00037C200.219 -0.65004 197.049 -0.683487 191.007 2.00037Z" fill="#093C67"/>
<path d="M198 34L48 115.5L30 274.5L116 361L197.5 418L282.5 358L363.5 273.5L347.5 115L198 34Z" fill="#326CE5"/>
<ellipse cx="197" cy="225.5" rx="122" ry="123.5" fill="white"/>
<ellipse cx="197" cy="225.5" rx="99" ry="100.5" fill="#0A3B66"/>
<circle cx="197" cy="226" r="68" fill="#2EF292"/>
<circle cx="197" cy="226" r="26" fill="#093965"/>
<path d="M283.146 138L210 204.809L219.91 217L295 152C290.887 146.278 288.283 143.217 283.146 138Z" fill="#093965"/>
<path d="M237.552 283C224.115 271.098 217.021 263.75 206 249.963L217.379 240C231.09 250.518 238.435 256.88 251 268.841L237.552 283Z" fill="#093965"/>
</svg>
