<svg width="395" height="452" viewBox="0 0 395 452" fill="none" xmlns="http://www.w3.org/2000/svg">
<path d="M191.007 2.00037L32.0069 87.0004C25.5134 91.5053 18.5191 92.2739 18.5069 100C11.3082 174.978 -5.01443 267.819 1.50692 286L95.0069 382.5L189.507 449C194.525 452.769 197.827 452.609 204.507 449L299.007 383.5C337.908 340.87 394.696 290.467 394.007 278L377.007 102.5C374.9 98.1076 378.214 93.5377 362.007 85.5004L205.507 2.00037C200.219 -0.65004 197.049 -0.683487 191.007 2.00037Z" fill="#093C67"/>
<path d="M198 34L48 115.5L30 274.5L116 361L197.5 418L282.5 358L363.5 273.5L347.5 115L198 34Z" fill="#326CE5"/>
<ellipse cx="197" cy="225.5" rx="122" ry="123.5" fill="white"/>
<ellipse cx="197" cy="225.5" rx="99" ry="100.5" fill="#0A3B66"/>
<circle cx="197" cy="226" r="68" fill="#2EF292"/>
<circle cx="197" cy="226" r="26" fill="#093965"/>
<path d="M284.017 139L210 204.963L220.028 217L295 152C291.094 146.51 288.708 143.643 284.017 139Z" fill="#093965"/>
<path d="M237.552 282C224.115 270.375 217.021 263.197 206 249.732L217.379 240C231.09 250.273 238.435 256.487 251 268.171L237.552 282Z" fill="#093965"/>
</svg>
