<svg width="403" height="579" viewBox="0 0 403 579" fill="none" xmlns="http://www.w3.org/2000/svg">
<path d="M196.007 2.00037L37.0069 87.0004C30.5134 91.5053 23.5191 92.2739 23.5069 100C16.3082 174.978 -0.0144267 267.819 6.50692 286L100.007 382.5L194.507 449C199.525 452.769 202.827 452.609 209.507 449L304.007 383.5C342.908 340.87 399.696 290.467 399.007 278L382.007 102.5C379.9 98.1076 383.214 93.5377 367.007 85.5004L210.507 2.00037C205.219 -0.65004 202.049 -0.683487 196.007 2.00037Z" fill="#093C67"/>
<path d="M203 34L53 115.5L35 274.5L121 361L202.5 418L287.5 358L368.5 273.5L352.5 115L203 34Z" fill="#326CE5"/>
<ellipse cx="202" cy="225.5" rx="122" ry="123.5" fill="white"/>
<ellipse cx="202" cy="225.5" rx="99" ry="100.5" fill="#0A3B66"/>
<circle cx="202" cy="226" r="68" fill="#2EF292"/>
<circle cx="202" cy="226" r="26" fill="#093965"/>
<path d="M289.017 139L215 204.963L225.028 217L300 152C296.094 146.51 293.708 143.643 289.017 139Z" fill="#093965"/>
<path d="M242.552 282C229.115 270.375 222.021 263.197 211 249.732L222.379 240C236.09 250.273 243.435 256.487 256 268.171L242.552 282Z" fill="#093965"/>
<path d="M28.8 551.056C23.68 551.056 18.848 550.288 14.304 548.752C9.824 547.216 5.408 544.976 1.056 542.032L9.12 529.648C13.408 532.464 17.088 534.512 20.16 535.792C23.232 537.008 26.24 537.616 29.184 537.616C31.296 537.616 33.088 537.328 34.56 536.752C36.096 536.176 37.28 535.376 38.112 534.352C38.944 533.328 39.36 532.144 39.36 530.8C39.36 528.88 38.688 527.408 37.344 526.384C36 525.36 34.24 524.56 32.064 523.984C29.888 523.344 27.488 522.8 24.864 522.352C22.24 521.84 19.616 521.232 16.992 520.528C14.368 519.76 11.968 518.704 9.792 517.36C7.616 516.016 5.856 514.224 4.512 511.984C3.168 509.68 2.496 506.704 2.496 503.056C2.496 498.64 3.52 494.864 5.568 491.728C7.616 488.528 10.56 486.064 14.4 484.336C18.304 482.608 22.976 481.744 28.416 481.744C33.344 481.744 38.08 482.48 42.624 483.952C47.232 485.424 51.168 487.472 54.432 490.096L46.08 502.096C43.072 499.792 40.032 498.064 36.96 496.912C33.952 495.76 30.816 495.184 27.552 495.184C24.544 495.184 22.208 495.792 20.544 497.008C18.88 498.224 18.048 499.76 18.048 501.616C18.048 503.344 18.72 504.688 20.064 505.648C21.408 506.544 23.2 507.28 25.44 507.856C27.68 508.432 30.112 508.976 32.736 509.488C35.424 509.936 38.08 510.576 40.704 511.408C43.392 512.176 45.856 513.264 48.096 514.672C50.336 516.016 52.128 517.872 53.472 520.24C54.816 522.608 55.488 525.616 55.488 529.264C55.488 533.552 54.4 537.36 52.224 540.688C50.048 543.952 46.944 546.512 42.912 548.368C38.944 550.16 34.24 551.056 28.8 551.056ZM63.2265 570.064V500.464H78.2025V505.264C79.8025 503.472 81.5945 502.096 83.5785 501.136C85.6265 500.176 87.8345 499.696 90.2025 499.696C94.2345 499.696 97.9145 500.816 101.243 503.056C104.571 505.296 107.227 508.336 109.211 512.176C111.195 516.016 112.187 520.368 112.187 525.232C112.187 530.032 111.195 534.384 109.211 538.288C107.227 542.128 104.571 545.168 101.243 547.408C97.9145 549.648 94.2345 550.768 90.2025 550.768C88.0265 550.768 85.9465 550.352 83.9625 549.52C82.0425 548.624 80.3145 547.408 78.7785 545.872V570.064H63.2265ZM86.5545 538.48C88.7305 538.48 90.5865 537.936 92.1225 536.848C93.6585 535.76 94.8425 534.224 95.6745 532.24C96.5065 530.192 96.9225 527.856 96.9225 525.232C96.9225 522.544 96.5065 520.208 95.6745 518.224C94.8425 516.24 93.6585 514.704 92.1225 513.616C90.5865 512.528 88.7305 511.984 86.5545 511.984C85.0825 511.984 83.6745 512.272 82.3305 512.848C81.0505 513.36 79.8665 514.096 78.7785 515.056V535.408C79.8665 536.368 81.0505 537.136 82.3305 537.712C83.6745 538.224 85.0825 538.48 86.5545 538.48ZM144.021 550.96C139.093 550.96 134.677 549.84 130.773 547.6C126.869 545.296 123.765 542.224 121.461 538.384C119.221 534.48 118.101 530.096 118.101 525.232C118.101 520.432 119.221 516.112 121.461 512.272C123.765 508.432 126.869 505.392 130.773 503.152C134.677 500.848 139.061 499.696 143.925 499.696C148.853 499.696 153.237 500.848 157.077 503.152C160.981 505.392 164.053 508.432 166.293 512.272C168.597 516.112 169.749 520.464 169.749 525.328C169.749 530.128 168.597 534.48 166.293 538.384C164.053 542.224 160.981 545.296 157.077 547.6C153.237 549.84 148.885 550.96 144.021 550.96ZM143.925 537.904C146.037 537.904 147.893 537.36 149.493 536.272C151.093 535.184 152.341 533.712 153.237 531.856C154.133 529.936 154.581 527.76 154.581 525.328C154.581 522.896 154.133 520.752 153.237 518.896C152.341 516.976 151.093 515.472 149.493 514.384C147.893 513.296 146.037 512.752 143.925 512.752C141.877 512.752 140.021 513.296 138.357 514.384C136.757 515.472 135.509 516.976 134.613 518.896C133.717 520.752 133.269 522.896 133.269 525.328C133.269 527.76 133.717 529.936 134.613 531.856C135.509 533.712 136.757 535.184 138.357 536.272C140.021 537.36 141.877 537.904 143.925 537.904ZM210.896 550.96C203.984 550.96 198.768 549.424 195.248 546.352C191.728 543.216 189.968 538.608 189.968 532.528V512.464H175.472V500.464H189.968V486.736L205.52 483.568V500.464H224.24V512.464H205.52V529.456C205.52 532.592 206.128 534.8 207.344 536.08C208.624 537.296 210.832 537.904 213.968 537.904C215.376 537.904 216.88 537.808 218.48 537.616C220.08 537.424 222.096 537.008 224.528 536.368V548.944C222.608 549.456 220.368 549.904 217.808 550.288C215.312 550.736 213.008 550.96 210.896 550.96ZM268.458 550.96C261.546 550.96 256.33 549.424 252.81 546.352C249.29 543.216 247.53 538.608 247.53 532.528V512.464H233.034V500.464H247.53V486.736L263.082 483.568V500.464H281.802V512.464H263.082V529.456C263.082 532.592 263.69 534.8 264.906 536.08C266.186 537.296 268.394 537.904 271.53 537.904C272.938 537.904 274.442 537.808 276.042 537.616C277.642 537.424 279.658 537.008 282.09 536.368V548.944C280.17 549.456 277.93 549.904 275.37 550.288C272.874 550.736 270.57 550.96 268.458 550.96ZM318.053 550.96C313.061 550.96 308.549 549.84 304.517 547.6C300.549 545.296 297.381 542.224 295.013 538.384C292.645 534.48 291.461 530.128 291.461 525.328C291.461 520.464 292.581 516.112 294.821 512.272C297.061 508.432 300.101 505.392 303.941 503.152C307.781 500.848 312.101 499.696 316.901 499.696C321.893 499.696 326.277 500.816 330.053 503.056C333.893 505.296 336.869 508.4 338.981 512.368C341.157 516.272 342.245 520.784 342.245 525.904V529.264H306.725C307.237 531.12 308.069 532.752 309.221 534.16C310.373 535.568 311.781 536.656 313.445 537.424C315.109 538.192 316.901 538.576 318.821 538.576C321.061 538.576 323.077 538.16 324.869 537.328C326.725 536.496 328.261 535.312 329.477 533.776L339.461 542.704C336.325 545.712 333.029 547.856 329.573 549.136C326.181 550.352 322.341 550.96 318.053 550.96ZM306.821 520.432H327.845C327.397 518.576 326.693 517.008 325.733 515.728C324.773 514.448 323.589 513.488 322.181 512.848C320.773 512.144 319.173 511.792 317.381 511.792C315.653 511.792 314.053 512.144 312.581 512.848C311.173 513.488 309.989 514.448 309.029 515.728C308.069 517.008 307.333 518.576 306.821 520.432ZM350.943 550V538H361.695V512.464H350.943V500.464H377.247V512.944C379.039 508.4 381.279 505.072 383.967 502.96C386.719 500.784 389.823 499.696 393.279 499.696C394.751 499.696 395.903 499.792 396.735 499.984C397.631 500.176 398.687 500.56 399.903 501.136V515.056C398.687 514.48 397.215 514.064 395.487 513.808C393.823 513.488 392.159 513.328 390.495 513.328C387.807 513.328 385.279 513.936 382.911 515.152C380.543 516.304 378.655 517.904 377.247 519.952V538H388.575V550H350.943Z" fill="#326CE5"/>
</svg>
